<svg xmlns="http://www.w3.org/2000/svg" xmlns:xlink="http://www.w3.org/1999/xlink" width="96" zoomAndPan="magnify" viewBox="0 0 72 72" height="96" preserveAspectRatio="xMidYMid meet" version="1.0"><defs><clipPath id="5497f582d3"><path d="M 15.164062 2.121094 L 36 2.121094 L 36 37 L 15.164062 37 Z M 15.164062 2.121094 " clip-rule="nonzero"/></clipPath><clipPath id="ca7c2a077d"><path d="M 15.164062 40 L 36 40 L 36 69.621094 L 15.164062 69.621094 Z M 15.164062 40 " clip-rule="nonzero"/></clipPath><clipPath id="a41b80f460"><path d="M 15.164062 26 L 36 26 L 36 49 L 15.164062 49 Z M 15.164062 26 " clip-rule="nonzero"/></clipPath><clipPath id="32b7ee96d2"><path d="M 35 2.121094 L 57 2.121094 L 57 37 L 35 37 Z M 35 2.121094 " clip-rule="nonzero"/></clipPath><clipPath id="0f4a203c2f"><path d="M 35 40 L 57 40 L 57 69.621094 L 35 69.621094 Z M 35 40 " clip-rule="nonzero"/></clipPath></defs><g clip-path="url(#5497f582d3)"><path fill="#ffc0b4" d="M 35.996094 2.152344 L 35.996094 26.742188 L 15.453125 36.394531 L 15.386719 36.355469 L 17.511719 32.824219 Z M 35.996094 2.152344 " fill-opacity="1" fill-rule="nonzero"/></g><g clip-path="url(#ca7c2a077d)"><path fill="#ffc0b4" d="M 35.996094 52.59375 L 35.996094 69.84375 L 15.164062 40.117188 Z M 35.996094 52.59375 " fill-opacity="1" fill-rule="nonzero"/></g><g clip-path="url(#a41b80f460)"><path fill="#f48d79" d="M 35.996094 26.742188 L 35.996094 48.699219 L 17.949219 37.890625 L 15.453125 36.394531 Z M 35.996094 26.742188 " fill-opacity="1" fill-rule="nonzero"/></g><g clip-path="url(#32b7ee96d2)"><path fill="#f48d79" d="M 56.613281 36.355469 L 56.546875 36.394531 L 35.996094 26.742188 L 35.996094 2.152344 L 54.488281 32.824219 Z M 56.613281 36.355469 " fill-opacity="1" fill-rule="nonzero"/></g><path fill="#cc8476" d="M 56.546875 36.394531 L 54.042969 37.890625 L 35.996094 48.699219 L 35.996094 26.742188 Z M 56.546875 36.394531 " fill-opacity="1" fill-rule="nonzero"/><g clip-path="url(#0f4a203c2f)"><path fill="#f48d79" d="M 56.835938 40.117188 L 36 69.847656 L 35.996094 69.84375 L 35.996094 52.59375 Z M 56.835938 40.117188 " fill-opacity="1" fill-rule="nonzero"/></g></svg>